<svg width="123" height="30" viewBox="0 0 123 30" fill="none" xmlns="http://www.w3.org/2000/svg">
<path d="M78.5784 26.892V15.6185H82.4456C83.5602 15.6185 84.5133 15.8425 85.305 16.2904C86.1019 16.7331 86.7112 17.3737 87.1331 18.2123C87.555 19.0508 87.7659 20.0612 87.7659 21.2435V21.2592C87.7659 22.4415 87.555 23.4545 87.1331 24.2982C86.7112 25.1368 86.1045 25.78 85.3128 26.2279C84.5211 26.6706 83.5654 26.892 82.4456 26.892H78.5784ZM79.9847 25.6264H82.3519C83.1904 25.6264 83.9065 25.4545 84.5003 25.1107C85.094 24.767 85.5472 24.2696 85.8597 23.6185C86.1722 22.9675 86.3284 22.1862 86.3284 21.2748V21.2592C86.3284 20.3425 86.1696 19.5586 85.8519 18.9076C85.5394 18.2514 85.0862 17.7514 84.4925 17.4076C83.8987 17.0586 83.1852 16.8842 82.3519 16.8842H79.9847V25.6264Z" fill="white"/>
<path d="M92.349 27.0404C91.547 27.0404 90.8568 26.8633 90.2787 26.5092C89.7058 26.155 89.2631 25.655 88.9506 25.0092C88.6433 24.3581 88.4897 23.5925 88.4897 22.7123V22.7045C88.4897 21.8347 88.6433 21.0717 88.9506 20.4154C89.2631 19.7592 89.7032 19.2461 90.2709 18.8764C90.8386 18.5066 91.5027 18.3217 92.2631 18.3217C93.0287 18.3217 93.685 18.4987 94.2318 18.8529C94.7839 19.2071 95.2058 19.7019 95.4975 20.3373C95.7943 20.9675 95.9428 21.7019 95.9428 22.5404V23.0717H89.1928V21.9857H95.2475L94.5756 22.9779V22.4389C94.5756 21.7774 94.4766 21.2331 94.2787 20.806C94.0808 20.379 93.8074 20.0612 93.4584 19.8529C93.1095 19.6394 92.7084 19.5326 92.2553 19.5326C91.8022 19.5326 91.3959 19.6446 91.0365 19.8685C90.6824 20.0873 90.4011 20.4128 90.1928 20.8451C89.9845 21.2774 89.8803 21.8086 89.8803 22.4389V22.9779C89.8803 23.5769 89.9818 24.0899 90.185 24.517C90.3881 24.9389 90.6772 25.2644 91.0522 25.4935C91.4272 25.7175 91.8699 25.8295 92.3803 25.8295C92.7605 25.8295 93.0912 25.7774 93.3725 25.6732C93.6537 25.5691 93.8855 25.4362 94.0678 25.2748C94.2501 25.1133 94.3777 24.9493 94.4506 24.7826L94.4818 24.7123H95.8412L95.8256 24.7748C95.7527 25.0612 95.6225 25.3399 95.435 25.6107C95.2527 25.8764 95.0157 26.1185 94.724 26.3373C94.4324 26.5508 94.086 26.7227 93.685 26.8529C93.2891 26.9779 92.8438 27.0404 92.349 27.0404Z" fill="white"/>
<path d="M99.8228 27.0404C99.1978 27.0404 98.6457 26.9467 98.1665 26.7592C97.6874 26.5665 97.302 26.2982 97.0103 25.9545C96.7238 25.6107 96.5546 25.2071 96.5025 24.7435H97.8931C98.0077 25.0925 98.2316 25.3737 98.565 25.5873C98.8983 25.8008 99.3332 25.9076 99.8697 25.9076C100.25 25.9076 100.583 25.8529 100.87 25.7435C101.161 25.629 101.39 25.4753 101.557 25.2826C101.724 25.0847 101.807 24.8581 101.807 24.6029V24.5873C101.807 24.3008 101.693 24.0586 101.463 23.8607C101.234 23.6576 100.859 23.4935 100.338 23.3685L99.0337 23.056C98.5077 22.931 98.0754 22.7696 97.7368 22.5717C97.3983 22.3685 97.1483 22.1211 96.9868 21.8295C96.8254 21.5326 96.7447 21.1836 96.7447 20.7826V20.7748C96.7447 20.306 96.8801 19.8868 97.1509 19.517C97.427 19.1472 97.802 18.8555 98.2759 18.642C98.7499 18.4284 99.2837 18.3217 99.8775 18.3217C100.466 18.3217 100.987 18.4154 101.44 18.6029C101.898 18.7852 102.265 19.0456 102.542 19.3842C102.823 19.7227 102.995 20.1211 103.057 20.5795H101.721C101.633 20.2461 101.43 19.9753 101.112 19.767C100.794 19.5586 100.38 19.4545 99.8697 19.4545C99.5363 19.4545 99.2395 19.5092 98.979 19.6185C98.7186 19.7227 98.5129 19.8685 98.3618 20.056C98.2108 20.2435 98.1353 20.4623 98.1353 20.7123V20.7279C98.1353 20.9154 98.1848 21.0821 98.2837 21.2279C98.3827 21.3737 98.5363 21.5014 98.7447 21.6107C98.953 21.7201 99.2212 21.8165 99.5493 21.8998L100.846 22.2123C101.638 22.405 102.226 22.681 102.612 23.0404C103.002 23.3998 103.198 23.8816 103.198 24.4857V24.5014C103.198 25.0014 103.049 25.4441 102.752 25.8295C102.456 26.2097 102.052 26.5066 101.542 26.7201C101.036 26.9336 100.463 27.0404 99.8228 27.0404Z" fill="white"/>
<path d="M104.218 26.892V18.4701H105.578V26.892H104.218ZM104.906 16.8451C104.651 16.8451 104.429 16.754 104.242 16.5717C104.06 16.3842 103.968 16.1628 103.968 15.9076C103.968 15.6472 104.06 15.4258 104.242 15.2435C104.429 15.0612 104.651 14.9701 104.906 14.9701C105.166 14.9701 105.388 15.0612 105.57 15.2435C105.752 15.4258 105.843 15.6472 105.843 15.9076C105.843 16.1628 105.752 16.3842 105.57 16.5717C105.388 16.754 105.166 16.8451 104.906 16.8451Z" fill="white"/>
<path d="M110.489 29.8607C109.812 29.8607 109.221 29.7644 108.716 29.5717C108.21 29.3842 107.807 29.1159 107.505 28.767C107.208 28.4232 107.023 28.0222 106.95 27.5639L106.966 27.556H108.372L108.38 27.5639C108.453 27.8816 108.671 28.142 109.036 28.3451C109.4 28.5534 109.885 28.6576 110.489 28.6576C111.244 28.6576 111.833 28.4857 112.255 28.142C112.682 27.8034 112.895 27.3243 112.895 26.7045V25.0014H112.77C112.593 25.3086 112.372 25.5717 112.106 25.7904C111.841 26.0092 111.541 26.1758 111.208 26.2904C110.874 26.3998 110.515 26.4545 110.13 26.4545C109.406 26.4545 108.778 26.2826 108.247 25.9389C107.721 25.5899 107.315 25.1107 107.028 24.5014C106.742 23.892 106.598 23.1941 106.598 22.4076V22.392C106.598 21.6055 106.742 20.9076 107.028 20.2982C107.32 19.6836 107.731 19.2019 108.262 18.8529C108.794 18.4987 109.427 18.3217 110.161 18.3217C110.557 18.3217 110.921 18.3842 111.255 18.5092C111.588 18.6342 111.882 18.8112 112.137 19.0404C112.398 19.2696 112.614 19.543 112.786 19.8607H112.88V18.4701H114.239V26.7748C114.239 27.3998 114.085 27.9441 113.778 28.4076C113.476 28.8711 113.044 29.2279 112.481 29.4779C111.919 29.7331 111.255 29.8607 110.489 29.8607ZM110.427 25.2514C110.947 25.2514 111.393 25.1316 111.762 24.892C112.137 24.6472 112.424 24.3112 112.622 23.8842C112.825 23.4571 112.927 22.9649 112.927 22.4076V22.392C112.927 21.8347 112.825 21.3399 112.622 20.9076C112.424 20.4753 112.137 20.1368 111.762 19.892C111.393 19.6472 110.947 19.5248 110.427 19.5248C109.906 19.5248 109.463 19.6472 109.098 19.892C108.739 20.1368 108.463 20.4753 108.27 20.9076C108.083 21.3399 107.989 21.8347 107.989 22.392V22.4076C107.989 22.9649 108.083 23.4571 108.27 23.8842C108.463 24.3112 108.739 24.6472 109.098 24.892C109.463 25.1316 109.906 25.2514 110.427 25.2514Z" fill="white"/>
<path d="M115.65 26.892V18.4701H117.01V19.7357H117.135C117.348 19.2878 117.655 18.9415 118.057 18.6967C118.458 18.4467 118.968 18.3217 119.588 18.3217C120.536 18.3217 121.262 18.5925 121.767 19.1342C122.278 19.6706 122.533 20.4389 122.533 21.4389V26.892H121.174V21.767C121.174 21.0066 121.012 20.4441 120.689 20.0795C120.372 19.7097 119.877 19.5248 119.205 19.5248C118.757 19.5248 118.369 19.6211 118.041 19.8139C117.713 20.0066 117.458 20.28 117.275 20.6342C117.098 20.9883 117.01 21.4128 117.01 21.9076V26.892H115.65Z" fill="white"/>
<path d="M24.1347 5.08323C22.9 6.55487 21.6987 8.11067 20.5308 9.75062C19.385 11.3664 18.2836 13.0423 17.2266 14.7783C17.0284 15.1158 16.8413 15.4413 16.6652 15.7546C16.489 16.044 16.3018 16.3333 16.1035 16.6227C15.773 17.0809 15.3533 17.3107 14.8446 17.3121C13.982 17.3144 13.2949 16.7867 12.7833 15.729C12.2939 14.6712 12.0467 13.2156 12.0417 11.3621C12.0386 10.2067 12.113 9.09928 12.265 8.03976C12.4169 6.95616 12.4915 5.90888 12.4888 4.89792C11.1885 6.65858 9.93389 8.93665 8.72489 11.7321C7.51583 14.5035 6.41845 17.6838 5.43277 21.273C5.30142 21.7788 5.14818 22.369 4.97305 23.0434C4.79791 23.7179 4.57844 24.3563 4.31464 24.9588C4.05084 25.5613 3.74254 26.0676 3.38975 26.4778C3.03702 26.912 2.6063 27.1298 2.09758 27.1312C1.45614 27.1329 0.946774 26.8935 0.569468 26.4131C0.192161 25.9327 0.00234258 25.2593 1.21801e-05 24.3927C-0.0020593 23.6225 0.260092 22.4062 0.786465 20.7439C1.31277 19.0575 2.03766 17.1901 2.96113 15.1416C3.99448 12.828 5.17192 10.6344 6.49345 8.56076C7.83711 6.48706 9.30244 4.42507 10.8895 2.37479C11.3744 1.74764 11.915 1.25274 12.5112 0.890072C13.1295 0.527348 13.7152 0.345242 14.2681 0.343755C15.0865 0.341554 15.6407 0.797408 15.9307 1.71132C16.0422 2.04801 16.1212 2.63753 16.1677 3.47988C16.2141 4.29816 16.2497 5.18869 16.2744 6.15145C16.2991 7.09015 16.3126 8.01684 16.3151 8.93152C16.3396 9.82207 16.3636 10.5201 16.3871 11.0255C16.5633 10.7602 16.8387 10.3623 17.2133 9.83176C17.6099 9.27706 18.0506 8.66207 18.5354 7.98679C19.0202 7.3115 19.5381 6.61206 20.0891 5.88845C20.6402 5.16484 21.1692 4.48944 21.6762 3.86224C22.2054 3.23497 22.6905 2.69208 23.1317 2.23354C23.5728 1.77501 23.9259 1.46114 24.1908 1.29193C24.5 1.09854 24.754 0.965466 24.9528 0.892718C25.1738 0.819911 25.3949 0.78321 25.6161 0.782615C26.1912 0.781069 26.6343 1.04466 26.9453 1.57338C27.2564 2.1021 27.4133 2.87194 27.416 3.88291C27.4197 5.25493 27.3902 6.61501 27.3275 7.96314C27.2647 9.31127 27.2352 10.6714 27.2389 12.0434C27.243 13.5598 27.2915 15.1484 27.3844 16.809C27.4994 18.4455 27.6697 20.0698 27.8952 21.682C27.9629 22.1873 28.0417 22.6805 28.1314 23.1617C28.2212 23.6429 28.2668 24.1482 28.2682 24.6778C28.2691 25.0148 28.1151 25.304 27.8061 25.5456C27.5192 25.787 27.1546 25.9084 26.7122 25.9096C26.1813 25.911 25.683 25.6476 25.2171 25.1193C24.7732 24.5668 24.3841 23.8217 24.0498 22.8838C23.7155 21.9219 23.447 20.8033 23.2445 19.5281C23.0641 18.2288 22.9719 16.8329 22.9679 15.3405C22.963 13.5352 23.08 11.8018 23.3188 10.1403C23.5797 8.45464 23.8517 6.76895 24.1347 5.08323Z" fill="white"/>
<path d="M63.3587 17.6871C63.3195 18.0368 63.2716 18.5352 63.215 19.1824C63.2092 19.2482 63.2034 19.3156 63.1974 19.3845C63.1331 20.1309 63.0577 20.9014 62.9714 21.6959C62.9453 21.9289 62.9171 22.1574 62.887 22.3815C62.8173 22.8988 62.7368 23.3927 62.6455 23.8632C62.5146 24.5375 62.361 25.0194 62.1848 25.3087C62.0306 25.5257 61.7988 25.7069 61.4896 25.8521C61.1804 26.0215 60.8378 26.1066 60.4618 26.1077C59.577 26.11 59.0226 25.582 58.7986 24.5235C58.6195 23.7055 58.5948 22.7548 58.7246 21.6713C58.8543 20.5637 58.9176 19.4081 58.9143 18.2046C58.7594 18.1809 58.5935 18.1573 58.4165 18.1337C58.2394 18.1101 58.0735 18.0744 57.9185 18.0267C57.7857 17.9789 57.6638 17.895 57.5529 17.7749C57.4641 17.6548 57.4194 17.4985 57.4189 17.3059C57.4182 17.0412 57.5061 16.8363 57.6827 16.6914C57.8592 16.5465 58.0579 16.3895 58.2786 16.2204C58.5214 16.0272 58.753 15.7979 58.9735 15.5325C59.1939 15.2431 59.3587 14.8214 59.4678 14.2675C59.4897 14.1952 59.5443 13.9544 59.6317 13.5449C59.7412 13.1354 59.8726 12.6416 60.0258 12.0635C60.2012 11.4854 60.3987 10.871 60.6181 10.2205C60.8375 9.54594 61.0902 8.93146 61.3762 8.37706C61.6623 7.82266 61.9707 7.36449 62.3015 7.00254C62.6323 6.64059 62.9857 6.45911 63.3617 6.45809C63.6935 6.4572 63.9593 6.60091 64.1591 6.88922C64.359 7.17754 64.4596 7.5624 64.4609 8.04381C64.4618 8.3808 64.4188 8.83826 64.3318 9.41619C64.2449 9.97005 64.1579 10.548 64.0711 11.15C63.9842 11.7279 63.9083 12.2938 63.8434 12.8476C63.7785 13.3773 63.7575 13.7866 63.7803 14.0754C63.8687 14.027 63.935 14.0027 63.9792 14.0026C64.0235 14.0025 64.0677 13.9904 64.1118 13.9662C64.7747 13.7237 65.4814 13.3005 66.2318 12.6967C67.0043 12.0929 67.7103 11.4291 68.3498 10.7052C68.9892 9.95729 69.5181 9.20968 69.9363 8.46236C70.3545 7.69097 70.5629 7.0405 70.5614 6.51094C70.5602 6.0536 70.4153 5.63275 70.1267 5.2484C69.8382 4.86404 69.4391 4.52812 68.9296 4.24064C68.4201 3.95316 67.8334 3.73811 67.1695 3.59547C66.5055 3.42876 65.7864 3.34644 65.0123 3.34852C63.5524 3.35245 62.171 3.70519 60.8679 4.40675C59.5647 5.08424 58.5057 6.09806 57.691 7.44821C57.3826 7.93046 57.2288 8.316 57.2296 8.60485C57.2301 8.79741 57.2527 8.95381 57.2972 9.07405C57.3418 9.19428 57.3863 9.30248 57.4308 9.39864C57.4752 9.47074 57.5197 9.55486 57.5642 9.65103C57.6087 9.74719 57.6312 9.87952 57.6316 10.048C57.6323 10.2887 57.5444 10.5056 57.368 10.6986C57.2136 10.8916 56.9817 10.9885 56.672 10.9894C55.9863 10.9912 55.4549 10.7519 55.0775 10.2715C54.7002 9.79112 54.5105 9.16579 54.5085 8.39553C54.5058 7.38456 54.8459 6.39675 55.529 5.43208C56.212 4.44334 57.1055 3.56235 58.2093 2.78912C59.3131 1.99182 60.5721 1.36259 61.9865 0.901442C63.4229 0.416162 64.8821 0.17153 66.364 0.167545C67.5363 0.164392 68.6316 0.354013 69.6501 0.736407C70.6906 1.09467 71.5988 1.58568 72.3747 2.20943C73.1505 2.83319 73.7607 3.57774 74.2054 4.44309C74.6501 5.28437 74.8737 6.18643 74.8763 7.14925C74.8801 8.56942 74.4964 9.82213 73.7252 10.9074C72.976 11.9685 72.0274 12.9219 70.8796 13.7674C69.7316 14.5889 68.4839 15.3264 67.1364 15.98C65.7889 16.6094 64.5297 17.1785 63.3587 17.6871Z" fill="white"/>
<path fill-rule="evenodd" clip-rule="evenodd" d="M36.4718 24.1502C37.0447 23.3303 37.5625 22.6068 38.0253 21.9797C38.6522 24.7702 40.348 26.1617 43.1128 26.1543C43.4003 26.1535 43.743 26.0924 44.1408 25.971C44.5607 25.8495 44.9584 25.68 45.3338 25.4623C45.4272 25.4055 45.5169 25.3467 45.6029 25.286C45.718 25.0247 45.8363 24.7339 45.958 24.4136C46.1486 23.9116 46.3476 23.3915 46.5548 22.8532C46.4867 22.7382 46.3978 22.6443 46.2882 22.5713C46.0001 22.3795 45.6681 22.2841 45.2921 22.2851C44.9382 22.286 44.5954 22.299 44.2637 22.324C43.9541 22.3489 43.6886 22.3135 43.4671 22.2178C43.2457 22.1221 43.0683 21.9541 42.9349 21.7137C42.8015 21.4493 42.7341 21.0403 42.7326 20.4867C42.7294 19.3072 42.903 18.0551 43.2533 16.7302C43.6036 15.3813 43.976 14.0564 44.3707 12.7555C44.7873 11.4305 45.1711 10.1898 45.5219 9.0335C45.8726 7.85309 46.0468 6.84165 46.0446 5.99918C46.0426 5.27706 45.9082 4.62751 45.6412 4.05053C45.3741 3.44948 44.9088 3.14985 44.2453 3.15163C43.9578 3.1524 43.7037 3.26141 43.4831 3.47864C43.2624 3.6718 43.064 3.91304 42.8878 4.20236C42.6676 4.53994 42.4697 4.97375 42.2941 5.50378C42.1186 6.00974 41.9539 6.47956 41.8003 6.91325C41.2075 8.55165 40.6478 10.1539 40.1211 11.7199C39.5945 13.2859 39.0787 14.7797 38.5738 16.2012C38.5079 16.3699 38.453 16.5145 38.4091 16.6349C38.3652 16.7554 38.2992 16.8759 38.211 16.9965C37.8583 17.4548 37.3846 18.1421 36.7899 19.0584C36.1952 19.9747 35.5562 20.8911 34.873 21.8076C34.1898 22.7242 33.5173 23.5323 32.8557 24.2322C32.1939 24.9079 31.6198 25.2465 31.1332 25.2478C30.9783 25.2482 30.8565 25.1883 30.7677 25.0682C30.6789 24.9481 30.6122 24.8039 30.5675 24.6355C30.5228 24.4671 30.4892 24.2987 30.4666 24.1303C30.444 23.9378 30.4324 23.7693 30.4321 23.6249C30.4292 22.5658 30.5698 21.3739 30.8538 20.0492C31.1377 18.7005 31.4878 17.3155 31.9043 15.8942C32.3206 14.4488 32.7813 13.0154 33.2862 11.5938C33.791 10.1482 34.2518 8.787 34.6686 7.51013C35.0855 6.23325 35.4363 5.07691 35.721 4.0411C36.0058 3.00529 36.1473 2.18651 36.1457 1.58474C36.1443 1.05519 35.9995 0.658409 35.7112 0.394405C35.4229 0.130402 35.0798 -0.00106421 34.6816 6.48724e-06C34.4383 0.000660799 34.2063 0.0855322 33.9856 0.254621C33.7648 0.39964 33.5552 0.59277 33.3568 0.834012C33.1583 1.07525 32.971 1.3285 32.7948 1.59375C32.6407 1.85895 32.5086 2.10001 32.3986 2.31694C31.7167 3.71488 31.0242 5.30541 30.3212 7.08854C29.6403 8.87161 29.0259 10.6906 28.478 12.5455C27.93 14.4005 27.4814 16.219 27.1323 18.0012C26.7832 19.7593 26.6105 21.3364 26.6142 22.7325C26.616 23.4065 26.6843 24.1284 26.8191 24.8983C26.9759 25.6441 27.199 26.3295 27.4882 26.9546C27.7995 27.5796 28.1991 28.096 28.6868 28.5039C29.1966 28.9117 29.7943 29.1147 30.48 29.1129C31.1878 29.111 31.8949 28.8563 32.6013 28.349C33.3077 27.8416 33.9807 27.2139 34.6201 26.466C35.2817 25.7421 35.8989 24.9702 36.4718 24.1502Z" fill="white"/>
<path fill-rule="evenodd" clip-rule="evenodd" d="M50.3287 8.80394C50.0425 9.3102 49.8223 9.69592 49.6682 9.96111C49.3779 8.92685 49.0877 7.92869 48.7975 6.96664C48.5073 5.98052 48.2285 5.10269 47.961 4.33314C47.6935 3.53953 47.4594 2.87821 47.2589 2.34919C47.0585 1.82017 46.9027 1.4836 46.7917 1.33947C46.6808 1.21942 46.5146 1.11155 46.2932 1.01586C46.0939 0.920111 45.8836 0.872534 45.6624 0.873129C45.2864 0.87414 44.9772 1.03143 44.7347 1.345C44.5144 1.65852 44.4049 2.06802 44.4063 2.5735C44.4073 2.95863 44.4527 3.37975 44.5424 3.83685C44.6542 4.29389 44.7327 4.70288 44.7779 5.06382C44.8006 5.2804 44.8569 5.66538 44.9469 6.21877C45.0368 6.74808 45.138 7.36162 45.2505 8.05937C45.385 8.75706 45.5197 9.47882 45.6544 10.2247C45.7891 10.9705 45.9126 11.6562 46.0249 12.2817C46.1372 12.9072 46.2271 13.4366 46.2946 13.8697C46.3842 14.2786 46.429 14.4951 46.4291 14.5192C46.4291 14.5433 46.3303 14.8083 46.1326 15.3143C45.957 15.8203 45.7375 16.4588 45.4742 17.2297C45.2108 17.9766 44.9144 18.8079 44.5851 19.7235C44.2557 20.615 43.9595 21.4943 43.6964 22.3616C43.4332 23.2048 43.203 23.9636 43.0058 24.6381C42.8306 25.3126 42.7435 25.7942 42.7442 26.0831C42.7451 26.4201 42.8565 26.6966 43.0783 26.9126C43.3001 27.1527 43.5658 27.2724 43.8755 27.2716C44.1188 27.2709 44.3507 27.162 44.5713 26.9447C44.8141 26.7515 45.0675 26.3898 45.3315 25.8595C45.4198 25.6875 45.5103 25.4963 45.6029 25.286C45.718 25.0247 45.8363 24.7339 45.958 24.4136C46.1486 23.9116 46.3476 23.3915 46.5548 22.8532C46.5863 22.7713 46.618 22.6891 46.6499 22.6064L47.4409 20.6545C47.7045 19.9798 47.9683 19.3653 48.2322 18.811C48.9903 21.0716 50.0346 22.826 51.3651 24.0741C52.7176 25.3221 54.2676 25.9438 56.015 25.9391C56.9218 25.9366 57.8172 25.7778 58.7011 25.4625C59.6071 25.1471 60.4133 24.7358 61.1197 24.2284C61.8262 23.721 62.3996 23.1297 62.8402 22.4545C62.8561 22.4302 62.8717 22.4059 62.887 22.3815C62.9171 22.1574 62.9453 21.9289 62.9714 21.6959C63.0577 20.9014 63.1331 20.1309 63.1974 19.3845C63.2034 19.3156 63.2092 19.2482 63.215 19.1824C63.1049 19.0286 62.9878 18.9518 62.864 18.9522C62.687 18.9526 62.4111 19.146 62.0361 19.5321C61.6611 19.9182 61.2199 20.3407 60.7124 20.7994C60.2269 21.234 59.6861 21.6446 59.09 22.0313C58.5159 22.418 57.9303 22.6122 57.3331 22.6138C56.8686 22.615 56.426 22.5079 56.0051 22.2924C55.6064 22.0768 55.1852 21.7169 54.7415 21.2126C54.3198 20.6842 53.8645 19.9753 53.3755 19.086C52.8864 18.1726 52.3525 17.0307 51.7737 15.6602C51.5957 15.2515 51.4844 14.9991 51.4399 14.9029C51.3954 14.7827 51.373 14.6985 51.3729 14.6503C51.3724 14.4818 51.5703 14.024 51.9664 13.2767C52.3625 12.5054 52.8578 11.6255 53.4523 10.637C54.0468 9.64845 54.6745 8.63579 55.3353 7.59897C56.0181 6.56209 56.624 5.68188 57.1529 4.95833C57.4394 4.54836 57.7037 4.12641 57.9458 3.69248C58.1879 3.25856 58.3083 2.76478 58.3068 2.21116C58.3055 1.72975 58.1384 1.28489 57.8055 0.876578C57.4948 0.468212 57.1293 0.264593 56.709 0.265724C56.333 0.266735 55.9795 0.424146 55.6486 0.737956C55.45 0.931055 55.1744 1.25675 54.8218 1.71504C54.4912 2.14921 54.1276 2.66771 53.7311 3.27055C53.3345 3.84931 52.927 4.47625 52.5086 5.15135C52.0901 5.82646 51.6937 6.47744 51.3194 7.10429C50.9451 7.73113 50.6148 8.29768 50.3287 8.80394Z" fill="white"/>
</svg>
